<svg id="Layer_1" data-name="Layer 1" xmlns="http://www.w3.org/2000/svg" viewBox="0 0 87 62.9"><defs><style>.cls-1{fill:#f7c745;}.cls-2,.cls-3{fill:#15383f;}.cls-3{fill-rule:evenodd;}</style></defs><title>26_Delivery_Truck</title><circle class="cls-1" cx="23.15" cy="53.96" r="3"/><circle class="cls-1" cx="69.06" cy="53.96" r="3"/><path class="cls-2" d="M20.92,57a4.5,4.5,0,1,1,4.5-4.5A4.5,4.5,0,0,1,20.92,57Zm0-6a1.5,1.5,0,1,0,1.5,1.5A1.5,1.5,0,0,0,20.92,51Z"/><path class="cls-2" d="M20.92,62.9a10.38,10.38,0,0,1-8.33-16.6A1.5,1.5,0,1,1,15,48.09a7.32,7.32,0,0,0-1.47,4.41,7.4,7.4,0,1,0,14.79,0,7.32,7.32,0,0,0-1.47-4.41,1.5,1.5,0,0,1,2.4-1.79,10.38,10.38,0,0,1-8.33,16.6Z"/><path class="cls-2" d="M66.84,57a4.5,4.5,0,1,1,4.5-4.5A4.5,4.5,0,0,1,66.84,57Zm0-6a1.5,1.5,0,1,0,1.5,1.5A1.5,1.5,0,0,0,66.84,51Z"/><path class="cls-2" d="M66.84,62.9a10.38,10.38,0,0,1-8.33-16.6,1.5,1.5,0,1,1,2.4,1.79,7.33,7.33,0,0,0-1.47,4.41,7.4,7.4,0,1,0,13.32-4.41,1.5,1.5,0,0,1,2.4-1.79,10.38,10.38,0,0,1-8.33,16.6Z"/><path class="cls-1" d="M64,14.72H86a1,1,0,0,1,1,1V45.11a1,1,0,0,1-1,1H73a10,10,0,0,1-10-10V15.72A1,1,0,0,1,64,14.72Z" transform="translate(149.99 60.83) rotate(180)"/><rect class="cls-1" y="24.19" width="12.46" height="12.46" rx="2" ry="2"/><rect class="cls-1" y="7.57" width="12.46" height="12.46" rx="2" ry="2"/><rect class="cls-1" x="40.77" y="24.19" width="12.46" height="12.46" rx="2" ry="2"/><rect class="cls-1" x="40.77" y="7.57" width="12.46" height="12.46" rx="2" ry="2"/><rect class="cls-1" x="16.46" y="7.57" width="20.31" height="29.54" rx="2" ry="2"/><path class="cls-2" d="M59.23,44.12H5.69a1.5,1.5,0,0,1-1.5-1.5V1.5A1.5,1.5,0,0,1,5.69,0H59.23a1.5,1.5,0,0,1,1.5,1.5V42.62A1.5,1.5,0,0,1,59.23,44.12Zm-52-3H57.73V3H7.19Z"/><path class="cls-2" d="M83.23,44.12h-24a1.5,1.5,0,0,1-1.5-1.5V11.23a1.5,1.5,0,0,1,1.5-1.5h14a11.51,11.51,0,0,1,11.5,11.5V42.62A1.5,1.5,0,0,1,83.23,44.12Zm-22.5-3h21V21.23a8.51,8.51,0,0,0-8.5-8.5H60.73Z"/><path class="cls-3" d="M72.71,18.15H66.06V28H76.4V21.85A3.69,3.69,0,0,0,72.71,18.15Z"/></svg>