<svg id="Layer_1" data-name="Layer 1" xmlns="http://www.w3.org/2000/svg" viewBox="0 0 514 514"><defs><style>.cls-1{fill:#f7c745;}.cls-2{fill:#042f36;}.cls-3{fill:#f4c542;}.cls-4{fill:#fff;}</style></defs><title>Icons</title><path class="cls-1" d="M367.18,185.16,281.34,116a7.61,7.61,0,0,0-9.21,0l-85.57,69.19a7.64,7.64,0,0,0-2.82,5.85V417.4A7.55,7.55,0,0,0,191.3,425H362.44A7.55,7.55,0,0,0,370,417.4V191A7.39,7.39,0,0,0,367.18,185.16Zm-89.89-11a15.06,15.06,0,0,1-.21,30.12h-.21a15.06,15.06,0,1,1,.42-30.12ZM261.74,352.32a58.1,58.1,0,1,1,58.09-58.1A58.1,58.1,0,0,1,261.74,352.32Z"/><path class="cls-2" d="M351.16,416.12H164.9a8.09,8.09,0,0,1-8.09-8.09V175.52a8.17,8.17,0,0,1,3-6.33l93.08-75.46a8.08,8.08,0,0,1,10.17,0l93.07,75.46a8.06,8.06,0,0,1,3,6.33V407.87a8.09,8.09,0,0,1-7.93,8.25ZM173.25,399.94H343.07V179.41L258,110.7l-85,68.71Z"/><path class="cls-2" d="M258,204.37a26.93,26.93,0,1,1,26.92-26.93A26.93,26.93,0,0,1,258,204.37Zm0-37.73a10.8,10.8,0,1,0,10.8,10.8,10.81,10.81,0,0,0-10.8-10.8Z"/><path class="cls-1" d="M257,497.79a7.32,7.32,0,0,1-7.32-7.32V450.36a7.32,7.32,0,0,1,14.64,0v40.3A7.34,7.34,0,0,1,257,497.79Z"/><path class="cls-1" d="M257.05,71.16a7.32,7.32,0,0,1-7.32-7.32V23.53a7.32,7.32,0,1,1,14.64,0V63.84A7.32,7.32,0,0,1,257.05,71.16Z"/><path class="cls-1" d="M490.47,264.37h-84a7.32,7.32,0,1,1,0-14.64h84a7.32,7.32,0,0,1,0,14.64Z"/><path class="cls-1" d="M107.71,264.27H23.53a7.32,7.32,0,0,1,0-14.64h84.18a7.32,7.32,0,1,1,0,14.64Z"/><path class="cls-1" d="M422.09,429.45a7.21,7.21,0,0,1-5.16-2.16l-28.51-28.51a7.33,7.33,0,0,1,10.36-10.36l28.51,28.51a7.34,7.34,0,0,1-5.2,12.52Z"/><path class="cls-1" d="M120.47,127.74a7.18,7.18,0,0,1-5.15-2.16L86.81,97.07A7.33,7.33,0,0,1,97.16,86.71l28.51,28.51a7.36,7.36,0,0,1,0,10.36A7.46,7.46,0,0,1,120.47,127.74Z"/><path class="cls-1" d="M393.63,127.79a7.32,7.32,0,0,1-5.21-12.47l28.51-28.51a7.33,7.33,0,1,1,10.74,10,2.72,2.72,0,0,1-.38.38l-28.51,28.51A7.24,7.24,0,0,1,393.63,127.79Z"/><path class="cls-1" d="M91.87,429.41a7.33,7.33,0,0,1-5.21-12.48l28.51-28.51a7.33,7.33,0,0,1,10.36,10.36L97,427.29A7.33,7.33,0,0,1,91.87,429.41Z"/><circle class="cls-3" cx="271.5" cy="301.51" r="53.59"/><path class="cls-2" d="M261.74,236.13a58.1,58.1,0,1,0,58.09,58.09h0A58.15,58.15,0,0,0,261.74,236.13Zm0,107.14a49.05,49.05,0,1,1,49.05-49h0A49.1,49.1,0,0,1,261.74,343.27Z"/><path class="cls-4" d="M270.68,332.93l-27.52-25.61v-8h11.91a11.12,11.12,0,0,0,0-22.23H244v-8.25h11a19.36,19.36,0,0,1,.49,38.72l20.74,19.29Z"/><rect class="cls-4" x="244.04" y="268.87" width="40.86" height="8.25"/><rect class="cls-4" x="244.04" y="284.12" width="40.86" height="8.25"/></svg>