<svg id="Layer_1" data-name="Layer 1" xmlns="http://www.w3.org/2000/svg" viewBox="0 0 87.07 89.29"><defs><style>.cls-1{fill:#f7c745;}.cls-2{fill:#15383f;}</style></defs><title>59_Softlines</title><path class="cls-1" d="M63.29,66.66a20.14,20.14,0,0,1-9.72.47A22.54,22.54,0,0,1,47.12,65a1,1,0,0,0-1.08.1,20,20,0,0,1-12.34,4.27H24.86a12.54,12.54,0,0,0-12.5,12.5v1.21a1,1,0,0,0,1,1H63.63a1,1,0,0,0,1-1V67.6A1,1,0,0,0,63.29,66.66ZM52.67,76.91A3.34,3.34,0,1,1,56,73.57,3.34,3.34,0,0,1,52.67,76.91Z"/><path class="cls-1" d="M20,21.47V7a1,1,0,0,0-1.44-.9L5.78,12.4a1,1,0,0,0-.48,1.3l4.07,9.43a1,1,0,0,0,1.06.59l8.75-1.26A1,1,0,0,0,20,21.47Z"/><path class="cls-1" d="M66.27,12.46,53.45,6.21a1,1,0,0,0-1.44.9V21.53a1,1,0,0,0,.86,1l8.75,1.26a1,1,0,0,0,1.06-.59l4.07-9.43A1,1,0,0,0,66.27,12.46Z"/><path class="cls-1" d="M82.51,11.7H75a1,1,0,0,0-1,1V32.75a9.57,9.57,0,0,1,9.48,3.46V12.7A1,1,0,0,0,82.51,11.7Z"/><path class="cls-1" d="M76,51.71a9.61,9.61,0,0,1-2-.2V76.74a1,1,0,0,0,1,1h7.48a1,1,0,0,0,1-1V48A9.56,9.56,0,0,1,76,51.71Z"/><path class="cls-2" d="M52.67,68.72a4.84,4.84,0,1,0,4.84,4.84A4.85,4.85,0,0,0,52.67,68.72Zm0,6.69a1.84,1.84,0,1,1,1.84-1.84A1.85,1.85,0,0,1,52.67,75.41Z"/><path class="cls-2" d="M15.11,53.65a1.5,1.5,0,0,0,1.5,1.5H49.18a1.5,1.5,0,0,0,1.5-1.5V22.59l8.65,1.24.21,0a1.5,1.5,0,0,0,1.38-.91l4.75-11A1.5,1.5,0,0,0,64.95,10L49.83,2.62l-.15-.05-.08,0L41.28.06h-.05L41,0H24.76l-.19,0h-.05L16.19,2.53l-.08,0L16,2.62.84,10a1.5,1.5,0,0,0-.72,1.94l4.75,11a1.5,1.5,0,0,0,1.38.91l.21,0,8.65-1.24ZM58.62,20.7l-7.94-1.14V6.37l11.67,5.69Zm-10.94.16V52.15H18.11V5.09L23.7,3.43A9.58,9.58,0,0,0,32.9,11a9.58,9.58,0,0,0,9.2-7.59l5.59,1.66ZM26.69,3H39.1a6.56,6.56,0,0,1-6.2,5A6.56,6.56,0,0,1,26.69,3ZM7.17,20.7,3.44,12.06,15.11,6.37V19.56Z"/><path class="cls-2" d="M62.75,62.59a1.5,1.5,0,0,0-1.46-.07c-2.51,1.23-6.3,1.56-10.14.89A21.86,21.86,0,0,1,46.51,62l.11-.11.42-.44a1.5,1.5,0,1,0-2.18-2.06l-.42.44a18.26,18.26,0,0,1-1.72,1.57q-.65.53-1.35,1l-.11-.19a1.5,1.5,0,0,0-2.62,1.46l.11.2-.19.09-.66.28c-.32.13-.65.25-1,.36l-.15-.35A1.5,1.5,0,0,0,34,65.36l-.64.1-.55.07-.62,0-.08-.29a1.5,1.5,0,0,0-2.93.35h-7a14,14,0,0,0-14,14v8.17a1.5,1.5,0,0,0,1.5,1.5H62a1.5,1.5,0,0,0,1.5-1.5V63.86A1.5,1.5,0,0,0,62.75,62.59Zm-51.56,17a11,11,0,0,1,11-11h7.75l1,3.65a1.5,1.5,0,0,0,2.88-.82L33,68.53q.71-.07,1.41-.18l.29-.05.49-.09,1.56,3.58a1.5,1.5,0,1,0,2.75-1.2L38.13,67.4c.47-.16.93-.34,1.39-.54h0l.69-.32,1.85,3.33a1.5,1.5,0,0,0,2.62-1.46l-1.86-3.34c.41-.27.81-.55,1.21-.85a24.31,24.31,0,0,0,6.59,2.13h0A22.16,22.16,0,0,0,60.45,66v14.3H11.19Zm49.27,6.67H11.19v-3H60.45Z"/><path class="cls-2" d="M87.07,42.13A11.07,11.07,0,0,0,82.23,33V9.1a1.5,1.5,0,0,0-1.5-1.5H71.25a1.5,1.5,0,0,0-1.5,1.5V33a11.07,11.07,0,0,0,0,18.3V75.15a1.5,1.5,0,0,0,1.5,1.5h9.48a1.5,1.5,0,0,0,1.5-1.5V51.27A11.07,11.07,0,0,0,87.07,42.13ZM79.23,10.6V13H72.75V10.6ZM72.75,16h6.48V31.53a11,11,0,0,0-6.48,0ZM67.91,42.13A8.08,8.08,0,1,1,76,50.21,8.09,8.09,0,0,1,67.91,42.13ZM79.23,73.65H72.75V52.72a11,11,0,0,0,6.48,0Z"/><path class="cls-2" d="M76,43.63H79.9a1.5,1.5,0,0,0,0-3H77.49V38.22a1.5,1.5,0,0,0-3,0v3.91A1.5,1.5,0,0,0,76,43.63Z"/></svg>